<?xml version="1.0" encoding="UTF-8" standalone="no"?>
<!-- Created with Inkscape (http://www.inkscape.org/) -->

<svg
   width="159.69951mm"
   height="142.73318mm"
   viewBox="0 0 159.69951 142.73318"
   version="1.1"
   id="svg5"
   xml:space="preserve"
   xmlns:inkscape="http://www.inkscape.org/namespaces/inkscape"
   xmlns:sodipodi="http://sodipodi.sourceforge.net/DTD/sodipodi-0.dtd"
   xmlns="http://www.w3.org/2000/svg"
   xmlns:svg="http://www.w3.org/2000/svg"><sodipodi:namedview
     id="namedview7"
     pagecolor="#ffffff"
     bordercolor="#000000"
     borderopacity="0.25"
     inkscape:showpageshadow="2"
     inkscape:pageopacity="0.0"
     inkscape:pagecheckerboard="0"
     inkscape:deskcolor="#d1d1d1"
     inkscape:document-units="mm"
     showgrid="false" /><defs
     id="defs2"><style
       id="style2402">.b{stroke-width:0px;}</style></defs><path
     class="b"
     d="M 0.01987664,3.571899 C 1.1484866,0.85125896 3.1839766,-0.07580104 6.0658666,0.00478896 c 5.1995904,0.14091 10.3991004,0.0229 15.5986904,0.0381 6.34823,0.0229 10.338622,3.10362004 11.991212,9.25038004 1.63239,6.06618 3.28498,12.13228 4.8569,18.198448 0.28183,1.10843 0.72513,1.47115 1.87431,1.47115 22.87399,0.0609 45.74797,0.16148 68.621961,0.26202 13.62361,0.0609 27.24721,0.12111 40.87089,0.20185 6.67074,0.0381 11.00366,5.2801 9.53252,11.76948 -3.70826,16.4048 -7.49703,32.78941 -11.34636,49.1741 -1.2696,5.40105 -5.74367,8.76662 -11.36646,8.92788 -1.97501,0.0609 -3.95002,0 -5.92503,0 -27.67048,0 -55.320781,-0.0381 -82.991271,-0.0381 -0.72513,0 -1.45103,0 -2.17655,0.0807 -2.70061,0.28183 -4.61514,2.458693 -4.61514,5.199593 0,2.74082 1.93472,4.87708 4.65543,5.13903 0.72514,0.0807 1.45104,0.0609 2.17656,0.0609 30.47179,0 60.943571,0 91.415361,0 3.70818,0 5.90492,2.11608 5.54212,5.32047 -0.20185,1.83394 -1.35026,2.98274 -2.94237,3.80895 3.08344,8.46439 1.572,15.71958 -6.00569,20.99975 -5.52202,3.84933 -13.03915,3.48653 -18.44029,-0.46387 -6.18705,-4.53447 -7.90004,-10.8223 -5.44135,-20.17346 H 82.829789 c 2.90207,8.30321 1.33015,15.49792 -6.10647,20.55636 -5.76386,3.9501 -12.11209,3.90981 -17.87594,-0.0229 -7.39626,-5.01807 -8.92796,-12.17249 -6.04599,-20.67717 -2.23704,0 -4.35312,0.0229 -6.44908,0 -7.5978,-0.12111 -13.46236,-5.15921 -14.63126,-12.51517 -1.249492,-7.960603 4.61506,-15.659103 12.63606,-16.566053 0.36257,-0.0381 0.70533,-0.10055 1.18909,-0.16148 -0.12111,-0.60479 -0.22165,-1.1488 -0.36257,-1.69288 -6.8521,-25.45364 -13.72438,-50.92738 -20.576472,-76.381008 -0.56442,-2.05568 -0.90688,-2.33781 -3.02303,-2.33781 -5.19952,0 -10.39911,-0.0807 -15.5986204,0.0229 -2.88197,0.0609 -4.93756,-0.92706 -5.985509956047,-3.68807 V 3.592319 Z M 41.495409,38.376687 c 1.85405,6.93276 3.66788,13.58331 5.42124,20.25405 0.24146,0.92706 0.76581,1.04794 1.57192,1.02783 5.19959,-0.0229 10.37892,0 15.5785,0 0.38314,0 0.786,-0.0807 1.26968,-0.14091 -0.0609,-0.7259 -0.10054,-1.35026 -0.18128,-1.9549 -0.786,-5.90492 -1.63248,-11.82996 -2.358,-17.73488 -0.14091,-1.08832 -0.50348,-1.37045 -1.53162,-1.37045 -4.77631,0 -9.5527,-0.0228 -14.32902,-0.0381 -1.75335,0 -3.50663,0 -5.44135,0 z m 60.701731,0.28183 v 20.81839 c 0.24146,0.0609 0.38313,0.14091 0.52405,0.14091 5.40106,0 10.80212,0 16.20325,0.0381 0.92699,0 1.10843,-0.44331 1.2092,-1.2092 0.60479,-4.67562 1.2293,-9.35116 1.83394,-14.04688 0.24146,-1.87424 0.46312,-3.74848 0.70534,-5.74367 z m -9.593001,20.91916 v -20.97964 h -20.53617 c 0.94717,7.07383 1.87423,14.04688 2.82141,20.97964 h 17.73495 z M 150.4441,38.739107 c -5.98551,0 -11.72918,0 -17.49304,0.0381 -0.3222,0 -0.82629,0.66497 -0.88677,1.08832 -0.56442,3.74847 -1.04795,7.49703 -1.53163,11.26569 -0.36257,2.761 -0.70533,5.54212 -1.06813,8.42409 h 16.18307 c 1.5921,-6.87228 3.1641,-13.70427 4.81668,-20.81839 z m -81.076741,51.14911 c -0.0609,-0.68553 -0.0609,-1.2495 -0.14091,-1.79365 -0.78593,-5.90493 -1.6324,-11.80985 -2.35792,-17.73488 -0.14092,-1.08832 -0.52405,-1.35026 -1.55181,-1.35026 -4.77631,0.0381 -9.55263,0 -14.32902,0.0229 -0.34276,0 -0.68476,0.0807 -1.20919,0.14091 1.75335,6.44901 3.42612,12.79731 5.26006,19.10533 0.20185,0.66496 1.2495,1.49133 1.91454,1.51144 4.07097,0.14091 8.16206,0.0609 12.39429,0.0609 z m 32.829781,0.0609 c 4.41351,0 8.70622,0 13.01897,-0.0381 0.30239,0 0.80618,-0.58423 0.86666,-0.94725 0.86658,-6.20717 1.69288,-12.43459 2.49898,-18.66194 0.0381,-0.38314 0,-0.786 0,-1.18902 h -16.38461 z m -26.038091,-20.8385 c 0.88677,6.73122 1.75336,13.26089 2.59976,19.79056 0.10054,0.86658 0.52405,1.08824 1.33016,1.06805 3.52682,-0.0381 7.05364,0 10.60064,0 0.64516,0 1.3099,0 1.93472,0 v -20.8385 h -16.46528 z m 52.015701,0 c -0.90696,6.93269 -1.81384,13.78486 -2.7409,20.81832 3.95009,0 7.73886,0.0609 11.50752,-0.0229 1.39064,-0.0381 1.9952,-1.08824 2.27733,-2.37811 1.02784,-4.59495 2.09597,-9.1899 3.1641,-13.80496 0.34277,-1.49133 0.68553,-2.98266 1.04795,-4.61514 H 128.19486 Z M 67.815549,133.13763 c 3.9098,0 7.07383,-3.10362 7.09401,-6.97305 0,-3.82914 -3.22458,-7.07383 -7.05364,-7.05364 -3.80903,0 -6.93276,3.14391 -6.97305,6.95287 -0.0381,3.92991 3.02295,7.05364 6.95286,7.07382 z m 59.129811,0 c 3.92992,0.0381 7.07383,-3.00284 7.11412,-6.93276 0.0381,-3.86943 -3.1238,-7.07375 -6.97305,-7.09393 -3.78884,-0.0229 -6.93276,3.06332 -7.03353,6.89239 -0.0807,3.9098 2.98274,7.09401 6.89246,7.1343 z"
     id="path2406"
     style="fill:#6b21a8;fill-opacity:1"
     inkscape:label="carrinho"
     inkscape:export-filename="branca sem fundo.svg"
     inkscape:export-xdpi="106.77265"
     inkscape:export-ydpi="106.77265" /></svg>
